<mxfile host="Electron" modified="2023-10-11T21:24:01.298Z" agent="Mozilla/5.0 (Windows NT 10.0; Win64; x64) AppleWebKit/537.36 (KHTML, like Gecko) draw.io/22.0.2 Chrome/114.0.5735.289 Electron/25.8.4 Safari/537.36" etag="PKN4tkBcGXQCPU9G9uly" version="22.0.2" type="device">
  <diagram name="Page-1" id="1vRJs4lVNhQBlpf-5Xkd">
    <mxGraphModel dx="1036" dy="614" grid="1" gridSize="10" guides="1" tooltips="1" connect="1" arrows="1" fold="1" page="1" pageScale="1" pageWidth="827" pageHeight="1169" math="0" shadow="0">
      <root>
        <mxCell id="0" />
        <mxCell id="1" parent="0" />
        <mxCell id="1uOcKFICSv0vDbiN43OY-33" value="" style="edgeStyle=orthogonalEdgeStyle;rounded=0;orthogonalLoop=1;jettySize=auto;html=1;shape=flexArrow;" edge="1" parent="1" source="1uOcKFICSv0vDbiN43OY-7" target="1uOcKFICSv0vDbiN43OY-32">
          <mxGeometry relative="1" as="geometry" />
        </mxCell>
        <mxCell id="1uOcKFICSv0vDbiN43OY-7" value="" style="rounded=1;whiteSpace=wrap;html=1;arcSize=6;" vertex="1" parent="1">
          <mxGeometry x="430" y="190" width="250" height="420" as="geometry" />
        </mxCell>
        <mxCell id="1uOcKFICSv0vDbiN43OY-3" value="" style="edgeStyle=orthogonalEdgeStyle;rounded=0;orthogonalLoop=1;jettySize=auto;html=1;" edge="1" parent="1" source="1uOcKFICSv0vDbiN43OY-1" target="1uOcKFICSv0vDbiN43OY-2">
          <mxGeometry relative="1" as="geometry" />
        </mxCell>
        <mxCell id="1uOcKFICSv0vDbiN43OY-1" value="rtk-serv" style="rounded=1;whiteSpace=wrap;html=1;" vertex="1" parent="1">
          <mxGeometry x="210" y="100" width="120" height="60" as="geometry" />
        </mxCell>
        <mxCell id="1uOcKFICSv0vDbiN43OY-5" value="" style="edgeStyle=orthogonalEdgeStyle;rounded=0;orthogonalLoop=1;jettySize=auto;html=1;" edge="1" parent="1" source="1uOcKFICSv0vDbiN43OY-2" target="1uOcKFICSv0vDbiN43OY-4">
          <mxGeometry relative="1" as="geometry" />
        </mxCell>
        <mxCell id="1uOcKFICSv0vDbiN43OY-2" value="RTCM&amp;nbsp;&lt;br&gt;Decode" style="whiteSpace=wrap;html=1;rounded=1;" vertex="1" parent="1">
          <mxGeometry x="480" y="100" width="120" height="60" as="geometry" />
        </mxCell>
        <mxCell id="1uOcKFICSv0vDbiN43OY-4" value="Base Station&lt;br&gt;Context" style="whiteSpace=wrap;html=1;rounded=1;" vertex="1" parent="1">
          <mxGeometry x="530" y="255" width="120" height="60" as="geometry" />
        </mxCell>
        <mxCell id="1uOcKFICSv0vDbiN43OY-6" value="Rover&lt;br&gt;Context" style="whiteSpace=wrap;html=1;rounded=1;" vertex="1" parent="1">
          <mxGeometry x="450" y="250" width="70" height="340" as="geometry" />
        </mxCell>
        <mxCell id="1uOcKFICSv0vDbiN43OY-8" value="RTKContext" style="text;html=1;align=center;verticalAlign=middle;resizable=0;points=[];autosize=1;strokeColor=none;fillColor=none;" vertex="1" parent="1">
          <mxGeometry x="440" y="190" width="90" height="30" as="geometry" />
        </mxCell>
        <mxCell id="1uOcKFICSv0vDbiN43OY-19" value="" style="edgeStyle=orthogonalEdgeStyle;rounded=0;orthogonalLoop=1;jettySize=auto;html=1;" edge="1" parent="1" source="1uOcKFICSv0vDbiN43OY-10" target="1uOcKFICSv0vDbiN43OY-18">
          <mxGeometry relative="1" as="geometry" />
        </mxCell>
        <mxCell id="1uOcKFICSv0vDbiN43OY-10" value="RINEX" style="swimlane;whiteSpace=wrap;html=1;" vertex="1" parent="1">
          <mxGeometry x="130" y="245" width="70" height="70" as="geometry" />
        </mxCell>
        <mxCell id="1uOcKFICSv0vDbiN43OY-11" value="FTP" style="swimlane;whiteSpace=wrap;html=1;" vertex="1" parent="1">
          <mxGeometry x="90" y="330" width="110" height="90" as="geometry" />
        </mxCell>
        <mxCell id="1uOcKFICSv0vDbiN43OY-12" value="DATA/OBS/256" style="text;html=1;align=center;verticalAlign=middle;resizable=0;points=[];autosize=1;strokeColor=none;fillColor=none;" vertex="1" parent="1uOcKFICSv0vDbiN43OY-11">
          <mxGeometry y="30" width="110" height="30" as="geometry" />
        </mxCell>
        <mxCell id="1uOcKFICSv0vDbiN43OY-13" value="DATA/NAV/256" style="text;html=1;align=center;verticalAlign=middle;resizable=0;points=[];autosize=1;strokeColor=none;fillColor=none;" vertex="1" parent="1uOcKFICSv0vDbiN43OY-11">
          <mxGeometry x="5" y="50" width="100" height="30" as="geometry" />
        </mxCell>
        <mxCell id="1uOcKFICSv0vDbiN43OY-23" value="" style="edgeStyle=orthogonalEdgeStyle;rounded=0;orthogonalLoop=1;jettySize=auto;html=1;" edge="1" parent="1" source="1uOcKFICSv0vDbiN43OY-17" target="1uOcKFICSv0vDbiN43OY-22">
          <mxGeometry relative="1" as="geometry" />
        </mxCell>
        <mxCell id="1uOcKFICSv0vDbiN43OY-17" value="UBLOX" style="rounded=1;whiteSpace=wrap;html=1;" vertex="1" parent="1">
          <mxGeometry x="80" y="450" width="120" height="60" as="geometry" />
        </mxCell>
        <mxCell id="1uOcKFICSv0vDbiN43OY-27" value="" style="edgeStyle=orthogonalEdgeStyle;rounded=0;orthogonalLoop=1;jettySize=auto;html=1;" edge="1" parent="1" source="1uOcKFICSv0vDbiN43OY-18" target="1uOcKFICSv0vDbiN43OY-6">
          <mxGeometry relative="1" as="geometry">
            <Array as="points">
              <mxPoint x="430" y="280" />
              <mxPoint x="430" y="280" />
            </Array>
          </mxGeometry>
        </mxCell>
        <mxCell id="1uOcKFICSv0vDbiN43OY-18" value="RNX 2 RTCM" style="whiteSpace=wrap;html=1;rounded=1;" vertex="1" parent="1">
          <mxGeometry x="280" y="250" width="120" height="60" as="geometry" />
        </mxCell>
        <mxCell id="1uOcKFICSv0vDbiN43OY-28" value="" style="edgeStyle=orthogonalEdgeStyle;rounded=0;orthogonalLoop=1;jettySize=auto;html=1;" edge="1" parent="1" source="1uOcKFICSv0vDbiN43OY-20" target="1uOcKFICSv0vDbiN43OY-6">
          <mxGeometry relative="1" as="geometry">
            <Array as="points">
              <mxPoint x="440" y="375" />
              <mxPoint x="440" y="375" />
            </Array>
          </mxGeometry>
        </mxCell>
        <mxCell id="1uOcKFICSv0vDbiN43OY-20" value="RNX 2 RTCM" style="whiteSpace=wrap;html=1;rounded=1;" vertex="1" parent="1">
          <mxGeometry x="280" y="345" width="120" height="60" as="geometry" />
        </mxCell>
        <mxCell id="1uOcKFICSv0vDbiN43OY-21" value="" style="edgeStyle=orthogonalEdgeStyle;rounded=0;orthogonalLoop=1;jettySize=auto;html=1;" edge="1" parent="1" source="1uOcKFICSv0vDbiN43OY-12" target="1uOcKFICSv0vDbiN43OY-20">
          <mxGeometry relative="1" as="geometry" />
        </mxCell>
        <mxCell id="1uOcKFICSv0vDbiN43OY-30" value="" style="edgeStyle=orthogonalEdgeStyle;rounded=0;orthogonalLoop=1;jettySize=auto;html=1;" edge="1" parent="1" source="1uOcKFICSv0vDbiN43OY-22" target="1uOcKFICSv0vDbiN43OY-6">
          <mxGeometry relative="1" as="geometry">
            <Array as="points">
              <mxPoint x="425" y="480" />
              <mxPoint x="425" y="480" />
            </Array>
          </mxGeometry>
        </mxCell>
        <mxCell id="1uOcKFICSv0vDbiN43OY-22" value="UBX 2 RTCM" style="whiteSpace=wrap;html=1;rounded=1;" vertex="1" parent="1">
          <mxGeometry x="280" y="450" width="120" height="60" as="geometry" />
        </mxCell>
        <mxCell id="1uOcKFICSv0vDbiN43OY-31" value="" style="edgeStyle=orthogonalEdgeStyle;rounded=0;orthogonalLoop=1;jettySize=auto;html=1;" edge="1" parent="1" source="1uOcKFICSv0vDbiN43OY-24" target="1uOcKFICSv0vDbiN43OY-6">
          <mxGeometry relative="1" as="geometry">
            <Array as="points">
              <mxPoint x="420" y="560" />
              <mxPoint x="420" y="560" />
            </Array>
          </mxGeometry>
        </mxCell>
        <mxCell id="1uOcKFICSv0vDbiN43OY-24" value="NMEA 2 RTCM" style="whiteSpace=wrap;html=1;rounded=1;" vertex="1" parent="1">
          <mxGeometry x="290" y="530" width="120" height="60" as="geometry" />
        </mxCell>
        <mxCell id="1uOcKFICSv0vDbiN43OY-26" value="" style="edgeStyle=orthogonalEdgeStyle;rounded=0;orthogonalLoop=1;jettySize=auto;html=1;" edge="1" parent="1" source="1uOcKFICSv0vDbiN43OY-25" target="1uOcKFICSv0vDbiN43OY-24">
          <mxGeometry relative="1" as="geometry" />
        </mxCell>
        <mxCell id="1uOcKFICSv0vDbiN43OY-25" value="NMEA" style="rounded=1;whiteSpace=wrap;html=1;" vertex="1" parent="1">
          <mxGeometry x="80" y="530" width="120" height="60" as="geometry" />
        </mxCell>
        <mxCell id="1uOcKFICSv0vDbiN43OY-35" value="" style="edgeStyle=orthogonalEdgeStyle;rounded=0;orthogonalLoop=1;jettySize=auto;html=1;shape=flexArrow;" edge="1" parent="1" source="1uOcKFICSv0vDbiN43OY-32" target="1uOcKFICSv0vDbiN43OY-34">
          <mxGeometry relative="1" as="geometry" />
        </mxCell>
        <mxCell id="1uOcKFICSv0vDbiN43OY-32" value="Solver" style="whiteSpace=wrap;html=1;rounded=1;" vertex="1" parent="1">
          <mxGeometry x="495" y="670" width="120" height="60" as="geometry" />
        </mxCell>
        <mxCell id="1uOcKFICSv0vDbiN43OY-34" value="Output" style="whiteSpace=wrap;html=1;rounded=1;" vertex="1" parent="1">
          <mxGeometry x="495" y="800" width="120" height="60" as="geometry" />
        </mxCell>
      </root>
    </mxGraphModel>
  </diagram>
</mxfile>
